<svg xmlns="http://www.w3.org/2000/svg" xmlns:xlink="http://www.w3.org/1999/xlink" version="1.1" x="0px" y="0px" viewBox="0 0 39.46 112.0125" style="enable-background:new 0 0 39.46 89.61;" xml:space="preserve"><path d="M24.29,87.43c-2.64,0-4.79-2.15-4.79-4.79V52.78c0-0.13-0.3-0.15-0.39-0.17c-0.14,0-0.4,0.05-0.4,0.18v29.85  c0,2.64-2.15,4.79-4.79,4.79c-2.64,0-4.79-2.15-4.79-4.79V30.4c-0.16-0.07-0.51-0.07-0.68,0v19.17c0,2.16-1.76,3.92-3.92,3.92  c-2.16,0-3.92-1.76-3.92-3.92V28.25c0-5.11,4.16-9.27,9.27-9.27h18.46c5.11,0,9.27,4.16,9.27,9.27v21.32c0,2.16-1.76,3.92-3.92,3.92  c-2.16,0-3.92-1.76-3.92-3.92V30.4c-0.16-0.07-0.52-0.07-0.68,0v52.24C29.08,85.28,26.93,87.43,24.29,87.43z M19.11,51.19  c0,0,0.01,0,0.01,0c1.04,0.01,1.8,0.68,1.8,1.6v29.85c0,1.86,1.51,3.37,3.37,3.37c1.86,0,3.37-1.51,3.37-3.37V30.29  c0.01-0.8,0.75-1.37,1.77-1.37c0.01,0,0.02,0,0.02,0c1.02,0.01,1.74,0.57,1.73,1.37v19.28c0,1.38,1.12,2.5,2.5,2.5  c1.38,0,2.5-1.12,2.5-2.5V28.25c0-4.33-3.52-7.85-7.85-7.85H9.87c-4.33,0-7.85,3.52-7.85,7.85v21.32c0,1.38,1.12,2.5,2.5,2.5  s2.5-1.12,2.5-2.5V30.29c0.01-0.8,0.8-1.37,1.78-1.37c1.02,0.01,1.74,0.57,1.74,1.36v52.35c0,1.86,1.51,3.37,3.37,3.37  c1.86,0,3.37-1.51,3.37-3.37V52.78C17.3,51.85,18.06,51.19,19.11,51.19z M29.76,30.29C29.76,30.29,29.76,30.29,29.76,30.29  L29.76,30.29z M19.1,18.77c-4.75,0-8.62-3.87-8.62-8.62s3.87-8.62,8.62-8.62s8.62,3.87,8.62,8.62S23.86,18.77,19.1,18.77z   M19.1,2.95c-3.97,0-7.2,3.23-7.2,7.2s3.23,7.2,7.2,7.2s7.2-3.23,7.2-7.2S23.07,2.95,19.1,2.95z"/><text x="0" y="104.61" fill="#000000" font-size="5px" font-weight="bold" font-family="'Helvetica Neue', Helvetica, Arial-Unicode, Arial, Sans-serif">Created by Ian Vibbert</text><text x="0" y="109.61" fill="#000000" font-size="5px" font-weight="bold" font-family="'Helvetica Neue', Helvetica, Arial-Unicode, Arial, Sans-serif">from the Noun Project</text></svg>